{"title":"Louis CK Live At The Comedy Store 2015 WEBRip XviD MP3-RARBG","uid":11695105,"size":1652913072,"categoryP":"video","categoryS":"hd___tv_shows","magnet":"?xt=urn:btih:8b523db9e1827aaabe15f5a5b63fe255a4643767&amp;dn=Louis+CK+Live+At+The+Comedy+Store+2015+WEBRip+XviD+MP3-RARBG&amp;tr=udp%3A%2F%2Ftracker.openbittorrent.com%3A80&amp;tr=udp%3A%2F%2Fopen.demonii.com%3A1337&amp;tr=udp%3A%2F%2Ftracker.coppersurfer.tk%3A6969&amp;tr=udp%3A%2F%2Fexodus.desync.com%3A6969","seeders":200,"leechers":24,"uploader":"pwn321","files":4,"time":1423677653,"description":"\n\nMediaInfo\n\n\nFormat : AVI\nFormat/Info : Audio Video Interleave\nFile size : 710 MiB\nDuration : 1h 5mn\nOverall bit rate : 1 516 Kbps\nMovie name : RARBG.COM - Louis.CK.Live.At.The.Comedy.Store.2015.WEBRip.XviD.MP3-RARBG\nWriting library : VirtualDub build 35491/release\nComment : RARBG.COM - Louis.CK.Live.At.The.Comedy.Store.2015.WEBRip.XviD.MP3-RARBG\n\nVideo\nID : 0\nFormat : MPEG-4 Visual\nFormat profile : Simple@L5\nFormat settings, BVOP : No\nFormat settings, QPel : No\nFormat settings, GMC : No warppoints\nFormat settings, Matrix : Default (H.263)\nCodec ID : XVID\nCodec ID/Hint : XviD\nDuration : 1h 5mn\nBit rate : 1 311 Kbps\nWidth : 720 pixels\nHeight : 400 pixels\nDisplay aspect ratio : 16:9\nFrame rate : 23.976 fps\nColor space : YUV\nChroma subsampling : 4:2:0\nBit depth : 8 bits\nScan type : Progressive\nCompression mode : Lossy\nBits/(Pixel*Frame) : 0.190\nStream size : 614 MiB (86%)\nWriting library : Lavc56.20.100\n\nAudio\nID : 1\nFormat : MPEG Audio\nFormat version : Version 1\nFormat profile : Layer 3\nMode : Joint stereo\nMode extension : MS Stereo\nCodec ID : 55\nCodec ID/Hint : MP3\nDuration : 1h 5mn\nBit rate mode : Constant\nBit rate : 192 Kbps\nChannel(s) : 2 channels\nSampling rate : 48.0 KHz\nCompression mode : Lossy\nStream size : 90.0 MiB (13%)\nAlignment : Aligned on interleaves\nInterleave, duration : 24 ms (0.58 video frame)\nInterleave, preload duration : 504 ms\nWriting library : LAME3.99.5","torrent":{"xt":"urn:btih:8b523db9e1827aaabe15f5a5b63fe255a4643767","amp;dn":"Louis+CK+Live+At+The+Comedy+Store+2015+WEBRip+XviD+MP3-RARBG","amp;tr":["udp%3A%2F%2Ftracker.openbittorrent.com%3A80","udp%3A%2F%2Fopen.demonii.com%3A1337","udp%3A%2F%2Ftracker.coppersurfer.tk%3A6969","udp%3A%2F%2Fexodus.desync.com%3A6969"],"infoHash":"8b523db9e1827aaabe15f5a5b63fe255a4643767","infoHashBuffer":{"type":"Buffer","data":[139,82,61,185,225,130,122,170,190,21,245,165,182,63,226,85,164,100,55,103]},"announce":[],"urlList":[]}}